<svg width="20" height="21" xmlns="http://www.w3.org/2000/svg" xmlns:xlink="http://www.w3.org/1999/xlink" xml:space="preserve" overflow="hidden"><g transform="translate(-102 -942)"><path d="M17.0833 4.79167 14.9877 4.79167C14.8693 3.76292 13.9394 3.02492 12.9107 3.14329 12.0449 3.24292 11.3619 3.92592 11.2623 4.79167L2.91667 4.79167 2.91667 5.20833 11.2623 5.20833C11.3807 6.23708 12.3106 6.97508 13.3393 6.85671 14.2051 6.75708 14.8881 6.07408 14.9877 5.20833L17.0833 5.20833ZM13.125 6.45833C12.3196 6.45833 11.6667 5.80542 11.6667 5 11.6667 4.19458 12.3196 3.54167 13.125 3.54167 13.9304 3.54167 14.5833 4.19458 14.5833 5 14.5824 5.80504 13.93 6.45742 13.125 6.45833Z" stroke="#0066B0" stroke-width="0.909081" fill="#00A9B8" transform="matrix(1 0 0 1.05 102 942)"/><path d="M17.0833 15.2083 17.0833 14.7917 14.1544 14.7917C14.036 13.7629 13.1061 13.0249 12.0773 13.1433 11.2116 13.2429 10.5286 13.9259 10.429 14.7917L2.91667 14.7917 2.91667 15.2083 10.429 15.2083C10.5473 16.2371 11.4773 16.9751 12.506 16.8567 13.3718 16.7571 14.0547 16.0741 14.1544 15.2083ZM12.2917 16.4583C11.4862 16.4583 10.8333 15.8054 10.8333 15 10.8333 14.1946 11.4862 13.5417 12.2917 13.5417 13.0971 13.5417 13.75 14.1946 13.75 15 13.7491 15.805 13.0967 16.4574 12.2917 16.4583Z" stroke="#0066B0" stroke-width="0.909081" fill="#00A9B8" transform="matrix(1 0 0 1.05 102 942)"/><path d="M7.08333 8.125C6.12869 8.12535 5.32669 8.84292 5.22062 9.79167L2.91667 9.79167 2.91667 10.2083 5.22062 10.2083C5.339 11.2371 6.26894 11.9751 7.29767 11.8567 8.16344 11.7571 8.84642 11.0741 8.94604 10.2083L17.0833 10.2083 17.0833 9.79167 8.94604 9.79167C8.83998 8.84292 8.03798 8.12535 7.08333 8.125ZM7.08333 11.4583C6.27792 11.4583 5.625 10.8054 5.625 10 5.625 9.19458 6.27792 8.54167 7.08333 8.54167 7.88875 8.54167 8.54167 9.19458 8.54167 10 8.54075 10.805 7.88837 11.4574 7.08333 11.4583Z" stroke="#0066B0" stroke-width="0.909081" fill="#00A9B8" transform="matrix(1 0 0 1.05 102 942)"/></g></svg>